HIERARCHY
ROOT Hips
{
	OFFSET 0.00000 0.00000 0.00000
	CHANNELS 6 Xposition Yposition Zposition Yrotation Zrotation Xrotation 
	JOINT Lumbar
	{
		OFFSET 0 0 0
		CHANNELS 3 Zrotation Xrotation Yrotation
		JOINT Neck
		{
			OFFSET 0.00 0.2701 0.00
			CHANNELS 3 Zrotation Xrotation Yrotation
			End Site
			{
				OFFSET 0.00 0.1379 0.00
			}
		}
		JOINT RightShoulder
		{
			OFFSET 0.0119 0.2289 0.1181
			CHANNELS 3 Zrotation Xrotation Yrotation
			JOINT RightElbow
			{
				OFFSET 0.00 -0.1475 0.00
				CHANNELS 2 Zrotation Yrotation
				JOINT RightWrist
				{
					OFFSET 0.00 -0.1605 0.00
					CHANNELS 2 Zrotation Xrotation
					End Site
					{
						OFFSET 0.0040 -0.1068 0.0006
					}
				}
			}
		}
		JOINT LeftShoulder
		{
			OFFSET 0.0119 0.2289 -0.1181
			CHANNELS 3 Zrotation Xrotation Yrotation
			JOINT LeftElbow
			{
				OFFSET 0.00 -0.1475 0.00
				CHANNELS 2 Zrotation Yrotation
				JOINT LeftWrist
				{
					OFFSET 0.00 -0.1605 0.00
					CHANNELS 2 Zrotation Xrotation
					End Site
					{
						OFFSET 0.0040 -0.1068 -0.0006
					}
				}
			}
		}
	}
	JOINT RightHip
	{
		OFFSET 0.0316 -0.0424 0.0458
		CHANNELS 3 Zrotation Xrotation Yrotation
		JOINT RightKnee
		{
			OFFSET 0.00 -0.2438 0.00
			CHANNELS 1 Zrotation
			JOINT RightAnkle
			{
				OFFSET 0.00 -0.2449 0.00
				CHANNELS 3 Zrotation Xrotation Yrotation
				End Site
				{
					OFFSET 0.1237 -0.0542 0.0051
				}
			}
		}
	}
	JOINT LeftHip
	{
		OFFSET 0.0316 -0.0424 -0.0458
		CHANNELS 3 Zrotation Xrotation Yrotation
		JOINT LeftKnee
		{
			OFFSET 0.00 -0.2438 0.00
			CHANNELS 1 Zrotation
			JOINT LeftAnkle
			{
				OFFSET 0.00 -0.2449 0.00
				CHANNELS 3 Zrotation Xrotation Yrotation
				End Site
				{
					OFFSET 0.1237 -0.0542 -0.0051
				}
			}
		}
	}
}
MOTION
Frames: 30
Frame Time: 0.02
0.00018 3e-05 -9e-05 19.261 -36.04111 -2.66118 57.1658 0.60502 0.64015 -5.44986 -1.70429 -1.01903 138.48041 -74.27969 -76.57682 11.81815 71.09875 -1.06906 -11.08345 151.22506 72.10465 83.08228 10.78269 -109.55642 -7.79201 15.22412 50.37193 0.09877 -5.2738 -18.7362 -7.89284 -4.08351 -4.29496 54.88356 0.82407 2.73071 -24.00023 -8.58707 4.00634 4.2845
0.00013 2e-05 -0.00011 19.30863 -36.02452 -2.6595 57.15946 0.595 0.61473 -5.46555 -1.71402 -1.01992 138.72936 -74.24337 -76.39987 11.81438 71.14882 -1.05923 -11.07474 151.23491 72.1158 83.09206 10.78222 -109.56086 -7.77196 15.21134 50.34025 -0.0046 -5.85285 -18.74015 -7.84937 -4.04595 -4.27268 54.85617 0.94545 3.3579 -24.00173 -8.53137 3.95028 4.25398
7e-05 1e-05 -0.00012 19.35615 -36.00797 -2.65783 57.15312 0.58501 0.58937 -5.48122 -1.72373 -1.02082 138.97769 -74.20711 -76.22337 11.81059 71.19874 -1.04943 -11.06604 151.24464 72.12692 83.10195 10.7817 -109.56529 -7.75196 15.19856 50.30866 -0.10768 -6.43025 -18.74409 -7.80602 -4.0085 -4.25048 54.82886 1.06655 3.98356 -24.00322 -8.47582 3.89436 4.22353
1e-05 0 -0.00014 19.40364 -35.99143 -2.65615 57.1468 0.57503 0.56402 -5.49686 -1.73343 -1.02171 139.22592 -74.1709 -76.04693 11.80683 71.24864 -1.03963 -11.05736 151.25446 72.13804 83.1117 10.78124 -109.56973 -7.73197 15.18583 50.27707 -0.21074 -7.00753 -18.74802 -7.76268 -3.97106 -4.22828 54.80156 1.18757 4.60888 -24.00471 -8.4203 3.83847 4.1931
-5e-05 -1e-05 -0.00015 19.45123 -35.97486 -2.65447 57.14046 0.56502 0.53859 -5.51253 -1.74314 -1.0226 139.47464 -74.13465 -75.87015 11.80309 71.29869 -1.02978 -11.04867 151.26439 72.14919 83.12137 10.7808 -109.57413 -7.71193 15.1731 50.24538 -0.31409 -7.58644 -18.75196 -7.71922 -3.93352 -4.20601 54.77418 1.30887 5.2356 -24.0062 -8.36463 3.78245 4.1626
-0.00011 -2e-05 -0.00017 19.49857 -35.95835 -2.65283 57.13414 0.55506 0.5134 -5.52817 -1.75282 -1.02349 139.7221 -74.09839 -75.69425 11.79921 71.34834 -1.02009 -11.03993 151.27368 72.16025 83.13175 10.78011 -109.57859 -7.692 15.1602 50.21398 -0.41661 -8.16063 -18.75589 -7.67611 -3.89626 -4.18393 54.747 1.42953 5.85897 -24.00768 -8.30933 3.72673 4.13226
-0.00016 -3e-05 -0.00018 19.54638 -35.94174 -2.6511 57.12779 0.54503 0.48776 -5.54386 -1.76257 -1.02439 139.97199 -74.0622 -75.51665 11.79564 71.39873 -1.01008 -11.03133 151.28435 72.17149 83.1405 10.78001 -109.58304 -7.6719 15.1477 50.18206 -0.52067 -8.74359 -18.75985 -7.63234 -3.85847 -4.1615 54.71946 1.55132 6.48838 -24.00918 -8.25336 3.67048 4.10164
-0.00022 -4e-05 -0.0002 19.59373 -35.9252 -2.64945 57.12145 0.53506 0.46255 -5.5595 -1.77224 -1.02528 140.21933 -74.0259 -75.34087 11.7917 71.44846 -1.00039 -11.02257 151.29359 72.18253 83.15111 10.77923 -109.58732 -7.65192 15.13477 50.1506 -0.62333 -9.31865 -18.76378 -7.58917 -3.82117 -4.13939 54.69224 1.67208 7.11224 -24.01067 -8.19801 3.61472 4.07128
-0.00028 -5e-05 -0.00021 19.64065 -35.90882 -2.6479 57.11518 0.52514 0.43777 -5.57511 -1.78185 -1.02616 140.4649 -73.98961 -75.16622 11.78763 71.4973 -0.99103 -11.01373 151.30166 72.19346 83.16262 10.77816 -109.59211 -7.6322 15.12154 50.11976 -0.72423 -9.88357 -18.76765 -7.54677 -3.78448 -4.11767 54.66546 1.79159 7.72954 -24.01213 -8.14336 3.55953 4.04122
-0.00033 -6e-05 -0.00023 19.69042 -35.89175 -2.6458 57.10872 0.51486 0.41021 -5.59098 -1.79195 -1.0271 140.72473 -73.95369 -74.98174 11.7853 71.55102 -0.97958 -11.0057 151.3182 72.20543 83.1648 10.78036 -109.59611 -7.61135 15.11072 50.0855 -0.83512 -10.50538 -18.77179 -7.50003 -3.74431 -4.09373 54.63629 1.91836 8.38531 -24.01371 -8.08454 3.50097 4.00938
-0.0004 -7e-05 -0.00024 19.73395 -35.87599 -2.64485 57.10252 0.5054 0.38874 -5.60622 -1.80094 -1.02791 140.95184 -73.91675 -74.82015 11.77867 71.59457 -0.97264 -10.99571 151.3158 72.21495 83.1893 10.77467 -109.60043 -7.59264 15.09438 50.05838 -0.92504 -11.00805 -18.7754 -7.46241 -3.71144 -4.07444 54.61209 2.02974 8.95935 -24.01506 -8.03458 3.44958 3.98132
-0.00051 -9e-05 -0.00023 19.76191 -35.86486 -2.64704 57.09801 0.49786 0.38237 -5.62045 -1.80744 -1.0284 141.10876 -73.87887 -74.70557 11.76456 71.61051 -0.97747 -10.98167 151.26745 72.21956 83.25092 10.75429 -109.61202 -7.58163 15.06507 50.05153 -0.956 -11.17356 -18.77727 -7.45036 -3.69912 -4.06835 54.60228 2.09916 9.31174 -24.01576 -8.00859 3.4175 3.96344
-0.00064 -0.00012 -0.00021 19.78326 -35.8548 -2.6504 57.09353 0.4912 0.38247 -5.63383 -1.81272 -1.02878 141.22836 -73.83958 -74.61782 11.74478 71.61717 -0.987 -10.96485 151.19758 72.22119 83.33719 10.72418 -109.6196 -7.57222 15.0289 50.05169 -0.96615 -11.22126 -18.77866 -7.44737 -3.69402 -4.06686 54.59732 2.15309 9.58147 -24.01625 -7.99156 3.39269 3.94939
-0.00076 -0.00014 -0.00019 19.80665 -35.8436 -2.65322 57.08844 0.48435 0.38057 -5.64723 -1.8182 -1.02921 141.35336 -73.79983 -74.52692 11.72547 71.62661 -0.99472 -10.94923 151.13541 72.22326 83.43078 10.69465 -109.62887 -7.56118 14.9956 50.0482 -0.9868 -11.32969 -18.78043 -7.43988 -3.6853 -4.06299 54.58969 2.21394 9.88743 -24.01687 -7.97061 3.36479 3.93369
-0.00087 -0.00016 -0.00018 19.83428 -35.83531 -2.65602 57.08605 0.47662 0.37445 -5.66251 -1.82521 -1.02962 141.53061 -73.76497 -74.3941 11.71731 71.638 -1.00087 -10.93631 151.08769 72.22997 83.45538 10.68348 -109.65163 -7.55485 14.96707 50.04679 -1.00313 -11.40791 -18.78149 -7.43402 -3.67807 -4.06034 54.58413 2.27527 10.19926 -24.01734 -7.949 3.33601 3.91758
-0.001 -0.00019 -0.00015 19.85129 -35.82101 -2.65919 57.07783 0.47092 0.37898 -5.67328 -1.82869 -1.03004 141.58577 -73.71924 -74.35971 11.68176 71.64826 -1.01167 -10.91404 150.9976 72.2253 83.61806 10.62904 -109.62911 -7.53796 14.92231 50.04259 -1.02338 -11.52064 -18.78393 -7.42689 -3.6694 -4.05624 54.57527 2.33191 10.47876 -24.01809 -7.93094 3.31079 3.90326
-0.00119 -0.00023 -0.00011 19.84244 -35.7916 -2.66275 57.0551 0.47083 0.40844 -5.67507 -1.82339 -1.03051 141.34915 -73.64602 -74.54684 11.59671 71.61246 -1.03211 -10.89108 150.85583 72.19847 84.21688 10.48208 -109.63031 -7.49894 14.87103 50.02989 -1.06081 -11.76178 -18.79036 -7.41407 -3.6553 -4.047 54.55729 2.37943 10.69361 -24.01957 -7.9201 3.29351 3.89263
-0.0014 -0.00029 -6e-05 19.82281 -35.75572 -2.66671 57.02615 0.47271 0.44889 -5.67168 -1.81448 -1.031 140.98325 -73.56085 -74.83821 11.48017 71.58326 -1.05766 -10.85311 150.6601 72.15861 84.91667 10.28822 -109.56456 -7.4462 14.79458 50.01396 -1.10262 -12.04064 -18.7982 -7.39967 -3.63946 -4.03614 54.53559 2.42272 10.87776 -24.02136 -7.91262 3.27962 3.88373
-0.00161 -0.00034 -1e-05 19.8069 -35.7217 -2.67067 56.99908 0.47356 0.48624 -5.6686 -1.80676 -1.03149 140.65396 -73.48053 -75.11312 11.36115 71.58195 -1.08195 -10.80736 150.45074 72.11925 85.56298 10.09859 -109.42489 -7.397 14.70846 49.99894 -1.14167 -12.29986 -18.80537 -7.38593 -3.62417 -4.02599 54.51485 2.46796 11.0734 -24.02308 -7.90384 3.26425 3.87421
-0.0018 -0.00039 3e-05 19.79569 -35.69246 -2.67384 56.97624 0.47503 0.51596 -5.67437 -1.8008 -1.03192 140.42067 -73.40526 -75.26687 11.31075 71.45405 -1.10105 -10.8277 150.40514 72.10306 86.34795 9.97707 -109.70074 -7.36605 14.72037 49.98657 -1.18346 -12.56679 -18.81261 -7.37265 -3.61008 -4.01608 54.49742 2.51271 11.27746 -24.02448 -7.89434 3.2488 3.86405
-0.00202 -0.00045 9e-05 19.7723 -35.65148 -2.6788 56.9428 0.47561 0.56394 -5.66019 -1.79043 -1.03249 139.95241 -73.31334 -75.68682 11.11263 71.5863 -1.13321 -10.70115 150.00164 72.03505 86.73515 9.70727 -109.12648 -7.28525 14.51074 49.96778 -1.22058 -12.82654 -18.82008 -7.35805 -3.59309 -4.00528 54.47207 2.55747 11.45663 -24.02662 -7.88713 3.23433 3.85565
-0.00232 -0.00055 0.0002 19.71732 -35.58161 -2.68818 56.88448 0.47362 0.66075 -5.59497 -1.76789 -1.03344 138.90589 -73.20803 -76.86858 10.49456 72.48192 -1.19035 -10.22751 148.65973 71.83037 87.17762 9.00158 -105.93715 -7.14421 13.80298 49.9325 -1.24619 -13.07192 -18.82761 -7.33901 -3.56756 -3.99175 54.42637 2.60512 11.58475 -24.03083 -7.88445 3.22069 3.85126
-0.00265 -0.00066 0.00034 19.65066 -35.49981 -2.69945 56.81525 0.47057 0.77527 -5.50951 -1.7412 -1.03452 137.61879 -73.08181 -78.27813 9.73463 73.63166 -1.26192 -9.60056 146.95302 71.57254 87.02706 8.15651 -101.93651 -6.94011 12.8597 49.8908 -1.26662 -13.30671 -18.83537 -7.31887 -3.53932 -3.97747 54.37273 2.65269 11.68748 -24.03575 -7.88408 3.20806 3.84861
-0.00297 -0.00077 0.00047 19.58971 -35.42211 -2.71013 56.74905 0.46776 0.88102 -5.43132 -1.71696 -1.03554 136.41841 -72.94452 -79.58278 9.0501 74.63304 -1.33376 -9.00249 145.38906 71.33806 86.33585 7.39875 -98.50769 -6.71571 11.94544 49.85163 -1.28786 -13.53723 -18.84315 -7.29994 -3.51293 -3.96396 54.32222 2.69916 11.79544 -24.04031 -7.88326 3.19562 3.84542
-0.00327 -0.00087 0.0006 19.52647 -35.34956 -2.7196 56.69049 0.46606 0.99043 -5.36045 -1.69015 -1.03658 135.31512 -72.88975 -81.00614 8.31013 75.76857 -1.37836 -8.55875 143.91939 71.1101 88.94156 6.53364 -94.2647 -6.6956 11.3326 49.81376 -1.31564 -13.80701 -18.85043 -7.27793 -3.48385 -3.94861 54.27338 2.75017 11.92853 -24.04508 -7.88009 3.18063 3.8413
-0.00362 -0.00098 0.00074 19.46564 -35.26381 -2.73211 56.61388 0.46173 1.09599 -5.27037 -1.66782 -1.03762 133.94643 -72.66319 -82.09799 7.66262 76.69102 -1.48128 -7.77912 142.16874 70.85163 84.69738 5.86533 -91.46842 -6.23764 10.07026 49.77197 -1.32865 -13.99242 -18.85881 -7.26212 -3.45978 -3.9369 54.21952 2.79186 12.00416 -24.04953 -7.88225 3.17105 3.83945
-0.00411 -0.00108 0.00095 19.41208 -35.14229 -2.75203 56.48713 0.45081 1.18929 -5.12528 -1.65838 -1.03869 131.96809 -71.92592 -83.43562 7.22209 76.92125 -1.76487 -5.91903 139.71727 70.56101 60.30439 5.73052 -93.36002 -4.56062 6.77682 49.71884 -1.30097 -13.94376 -18.86993 -7.26359 -3.44999 -3.93551 54.15145 2.80734 11.92325 -24.0533 -7.89889 3.17704 3.84385
-0.00464 -0.00119 0.00119 19.36184 -35.0085 -2.77512 56.34329 0.43728 1.27764 -4.96265 -1.65371 -1.03976 129.71826 -71.02467 -84.23589 6.89838 76.94312 -2.1077 -3.75916 136.99685 70.23486 29.28964 5.81003 -96.64549 -2.44721 2.89008 49.66252 -1.25879 -13.81101 -18.88216 -7.27135 -3.44533 -3.93775 54.07919 2.81369 11.78637 -24.05664 -7.92067 3.1882 3.85035
-0.00516 -0.00129 0.00141 19.31163 -34.88161 -2.79697 56.20915 0.42455 1.36632 -4.8129 -1.6472 -1.04082 127.55283 -70.22526 -84.44306 6.5717 77.07869 -2.40134 -1.86495 134.41126 69.89872 2.21739 5.81672 -98.96641 -0.55379 -0.52748 49.60892 -1.22401 -13.71904 -18.89403 -7.27631 -3.43854 -3.93831 54.01024 2.82441 11.67788 -24.05994 -7.9399 3.1965 3.85564
-0.00567 -0.0014 0.00164 19.25448 -34.74809 -2.81766 56.06609 0.41306 1.46337 -4.64262 -1.63915 -1.04195 125.54888 -69.30819 -88.06219 6.01522 77.11382 -2.76736 0.56998 131.76656 69.66876 -28.79236 5.70244 -102.64889 1.42213 -4.78332 49.54925 -1.18566 -13.61608 -18.90537 -7.28103 -3.43102 -3.93911 53.93458 2.83367 11.55579 -24.06433 -7.96032 3.20727 3.86219
